<svg xmlns="http://www.w3.org/2000/svg" width="56.256" height="56.569" viewBox="0 0 56.256 56.569">
  <g id="satellite-icon" transform="translate(28.128) rotate(45)">
    <path id="Path_33549" data-name="Path 33549" d="M39.467,6.152,33.627.312a1.065,1.065,0,0,0-1.506,0L21.452,10.981a1.065,1.065,0,0,0,0,1.506l2.167,2.167-1.383,1.383-2.9-2.9a4.387,4.387,0,0,0-5.354-.661L12.766,11.26a1.065,1.065,0,0,0-1.506,1.507l1.213,1.213a4.391,4.391,0,0,0,.66,5.353l2.9,2.9-1.383,1.383-2.167-2.167a1.066,1.066,0,0,0-1.507,0L.312,32.121a1.065,1.065,0,0,0,0,1.506l5.84,5.84a1.064,1.064,0,0,0,1.506,0L18.327,28.8a1.066,1.066,0,0,0,0-1.507L16.16,25.125l1.383-1.383,2.9,2.9a4.355,4.355,0,0,0,3.1,1.284h0a4.383,4.383,0,0,0,3.1-7.482l-2.9-2.9,1.383-1.383,2.167,2.167a1.067,1.067,0,0,0,1.507,0L39.467,7.658a1.065,1.065,0,0,0,0-1.506ZM14.907,29.205,12.74,27.039a1.065,1.065,0,0,0-1.506,1.506L13.4,30.712,9.572,34.54,7.406,32.373A1.065,1.065,0,1,0,5.9,33.879l2.167,2.167L6.9,37.207,2.571,32.874,6.4,29.046l2.167,2.167a1.065,1.065,0,0,0,1.506-1.507L7.906,27.539l3.828-3.828,4.334,4.333Zm.486-10.627.84-.84,5.808,5.808-.84.84Zm8.154,3.462-5.808-5.808.84-.84L24.386,21.2Zm-6.663-7.965-2.808,2.808a2.255,2.255,0,0,1,2.808-2.808ZM25.14,25.139a2.238,2.238,0,0,1-1.593.66,2.266,2.266,0,0,1-.651-.1L25.7,22.9a2.266,2.266,0,0,1,.1.651A2.238,2.238,0,0,1,25.14,25.139Zm8.24-14.407L31.212,8.566a1.065,1.065,0,1,0-1.506,1.506l2.167,2.167-3.828,3.828-4.334-4.333,1.161-1.161,2.167,2.167a1.065,1.065,0,0,0,1.506-1.506L26.378,9.067l3.828-3.828,2.167,2.167A1.065,1.065,0,0,0,33.88,5.9L31.713,3.732l1.161-1.161L37.208,6.9Z" transform="translate(0.221 0.221)" fill="#fff"/>
    <path id="Path_33550" data-name="Path 33550" d="M.91,11.4a.909.909,0,0,0,.909-.909,8.678,8.678,0,0,1,8.669-8.668.91.91,0,0,0,0-1.819A10.5,10.5,0,0,0,0,10.488.909.909,0,0,0,.91,11.4Z" transform="translate(0 0)" fill="#fff"/>
    <path id="Path_33551" data-name="Path 33551" d="M7.115,0h0A7.122,7.122,0,0,0,0,7.115a.909.909,0,0,0,1.819,0,5.3,5.3,0,0,1,5.3-5.3h0A.909.909,0,0,0,7.115,0Z" transform="translate(3.373 3.373)" fill="#fff"/>
    <path id="Path_33552" data-name="Path 33552" d="M3.742,0A3.742,3.742,0,0,0,0,3.742a.909.909,0,1,0,1.819,0A1.924,1.924,0,0,1,3.742,1.819.909.909,0,0,0,3.742,0Z" transform="translate(8.073 8.073)" fill="#fff"/>
  </g>
</svg>
